<svg width="3840" height="2160" viewBox="0 0 3840 2160" fill="none" xmlns="http://www.w3.org/2000/svg">
<path opacity="0.3" d="M-2109.97 -4172.54C-2136.4 -4150.87 -2190.89 -4117.54 -2230.53 -4099.2C-2311.45 -4062.54 -2349.44 -3992.53 -2349.44 -3880.86V-3812.52L-2402.28 -3824.19C-2537.7 -3852.52 -2588.9 -3850.86 -2641.75 -3817.52C-2709.46 -3775.85 -2782.12 -3664.18 -2818.46 -3549.17C-2836.62 -3494.17 -2874.61 -3429.17 -2910.94 -3389.16C-2965.44 -3329.16 -3010.03 -3232.49 -3010.03 -3172.48C-3010.03 -3142.48 -3067.83 -3099.15 -3105.81 -3099.15C-3127.28 -3099.15 -3180.13 -3119.15 -3224.72 -3142.48C-3303.99 -3184.15 -3308.95 -3184.15 -3384.91 -3159.15C-3488.96 -3124.15 -3639.24 -3109.15 -3670.62 -3130.82C-3690.44 -3145.82 -3693.74 -3189.15 -3690.44 -3385.83C-3683.83 -3692.51 -3678.88 -3689.18 -3936.51 -3695.85C-4113.22 -3702.52 -4118.17 -3700.85 -4199.09 -3650.85L-4280.02 -3600.84L-4408.83 -3634.18C-4590.49 -3682.51 -4716.01 -3682.51 -4818.4 -3634.18C-5014.92 -3542.51 -5052.91 -3519.17 -5171.81 -3415.83C-5320.45 -3285.82 -5414.58 -3165.82 -5429.44 -3085.81C-5442.66 -3017.48 -5460.82 -2980.81 -5535.14 -2885.8C-5632.58 -2757.46 -5647.44 -2749.13 -5759.74 -2749.13C-5814.24 -2749.13 -5867.09 -2742.46 -5877 -2735.79C-5900.12 -2714.13 -6025.63 -2672.46 -6157.75 -2640.79C-6357.58 -2594.12 -6428.59 -2500.78 -6428.59 -2285.77C-6428.59 -2250.77 -6443.45 -2197.43 -6461.62 -2165.76C-6527.68 -2050.75 -6562.36 -1959.08 -6577.22 -1859.08C-6585.48 -1802.41 -6597.04 -1735.74 -6601.99 -1707.4C-6606.95 -1680.73 -6613.56 -1575.73 -6618.51 -1474.06C-6626.77 -1277.38 -6625.12 -1280.71 -6729.16 -1259.04C-6752.28 -1254.04 -6808.43 -1222.37 -6849.72 -1189.04C-6919.08 -1135.7 -6942.2 -1129.04 -7079.27 -1114.03C-7302.22 -1090.7 -7340.21 -1082.37 -7398.01 -1039.03C-7439.29 -1007.36 -7454.16 -979.027 -7469.02 -905.69C-7502.05 -747.347 -7607.75 -639.008 -7812.53 -552.336C-7848.86 -535.669 -7876.94 -504 -7909.97 -435.663C-7961.16 -333.99 -7992.54 -308.989 -8162.64 -250.652C-8317.88 -195.649 -8499.54 -103.977 -8636.62 -12.3052C-8701.02 31.0306 -8770.39 67.6989 -8790.2 67.6989C-8810.02 67.6989 -8856.26 42.6976 -8890.95 11.0291C-8966.91 -52.3078 -9069.3 -85.6429 -9133.71 -65.6418C-9158.48 -58.9747 -9214.63 -37.3069 -9257.57 -17.3057C-9302.16 2.6954 -9358.31 17.6966 -9381.43 17.6966C-9427.68 17.6966 -9606.04 -42.3072 -9723.29 -97.3104C-9876.88 -168.981 -9994.13 -202.316 -10050.3 -192.316C-10114.7 -180.648 -10142.8 -153.98 -10197.3 -50.6412C-10220.4 -3.97185 -10256.7 34.364 -10293.1 54.3652C-10397.1 107.702 -10476.4 204.374 -10502.8 312.713C-10516 366.05 -10532.5 432.72 -10539.1 461.055C-10547.4 489.39 -10585.4 572.728 -10626.6 644.399C-10729 831.076 -10762.1 946.082 -10748.9 1076.09L-10739 1179.43L-10862.8 1361.11C-10930.5 1461.11 -11021.4 1594.45 -11064.3 1659.46C-11107.2 1722.79 -11145.2 1779.46 -11150.2 1784.46C-11155.1 1789.46 -11178.2 1826.13 -11199.7 1867.8C-11232.7 1926.14 -11241 1966.14 -11241 2067.81C-11241 2179.49 -11236 2204.49 -11186.5 2292.83C-11156.8 2347.83 -11125.4 2401.17 -11117.1 2411.17C-11108.9 2421.17 -11087.4 2472.84 -11069.2 2526.17C-11051.1 2577.84 -11011.4 2651.18 -10980.1 2686.18C-10947 2721.18 -10904.1 2777.85 -10882.6 2812.86C-10831.4 2896.19 -10747.2 3119.54 -10722.4 3241.21C-10705.9 3326.22 -10691.1 3349.55 -10620 3416.22C-10575.5 3457.89 -10511 3534.56 -10479.7 3584.57C-10426.8 3664.57 -10418.6 3691.24 -10416.9 3789.58C-10412 3901.25 -10410.3 3906.25 -10340.9 3979.59C-10243.5 4079.59 -10213.8 4092.93 -9989.18 4137.93C-9871.92 4161.27 -9782.74 4187.93 -9764.58 4204.6C-9731.55 4234.6 -9610.99 4284.61 -9566.4 4284.61C-9551.54 4284.61 -9516.86 4306.27 -9487.13 4334.61C-9457.4 4361.28 -9427.68 4384.61 -9421.07 4384.61C-9401.25 4384.61 -9198.12 4587.96 -9146.92 4659.63C-9118.85 4696.3 -9069.3 4752.97 -9034.62 4786.3C-8985.08 4834.64 -8971.87 4859.64 -8971.87 4904.64C-8971.87 4956.31 -8960.31 4972.98 -8869.48 5044.65C-8701.02 5177.99 -8653.13 5209.66 -8550.74 5267.99C-8496.24 5298 -8407.06 5364.67 -8352.56 5418C-8298.06 5471.34 -8236.96 5523.01 -8217.14 5533.01C-8146.13 5569.68 -7857.12 5601.35 -7503.7 5609.68C-7307.18 5614.68 -7109 5626.35 -7064.41 5634.68C-7018.17 5643.02 -6838.16 5666.35 -6661.45 5686.35C-6283.26 5729.69 -6111.51 5723.02 -5895.16 5659.68C-5754.79 5618.01 -5733.32 5616.35 -5358.43 5619.68C-4973.64 5621.35 -4925.74 5618.01 -4876.2 5576.35C-4839.87 5544.68 -4716.01 5473.01 -4613.61 5424.67C-4539.3 5388 -4509.57 5383 -4443.51 5391.34C-4334.51 5406.34 -4258.55 5389.67 -4207.35 5339.67C-4162.76 5293 -4156.15 5237.99 -4184.23 5149.65C-4209 5079.65 -4248.64 5031.31 -4359.29 4949.64L-4443.51 4886.31L-4436.91 4781.3C-4431.95 4722.96 -4425.35 4629.63 -4420.39 4571.29L-4410.48 4467.95H-4346.07C-4251.94 4467.95 -4223.86 4417.95 -4238.73 4267.94C-4246.99 4166.27 -4245.33 4151.26 -4218.91 4136.26C-4185.88 4117.93 -3769.71 4006.26 -3654.1 3982.92C-3612.82 3976.25 -3521.99 3957.92 -3449.32 3944.59C-3310.6 3916.25 -3315.55 3916.25 -3158.66 4001.26C-3110.77 4027.92 -3089.3 4029.59 -3034.8 4016.26C-2968.74 3999.59 -2768.91 3979.59 -2432.01 3952.92C-2205.76 3934.59 -2020.79 3901.25 -1969.6 3869.58C-1920.05 3837.91 -1887.02 3807.91 -1887.02 3792.91C-1887.02 3786.24 -1877.11 3757.91 -1863.9 3729.57C-1850.69 3699.57 -1812.7 3599.57 -1778.02 3504.56C-1711.96 3322.88 -1705.36 3314.55 -1553.42 3229.55C-1432.86 3161.21 -1373.41 3156.21 -1312.31 3209.54C-1280.93 3236.21 -1228.08 3257.88 -1173.58 3267.88C-1125.69 3276.21 -1062.93 3289.55 -1036.51 3299.55C-1008.43 3307.88 -967.148 3319.55 -940.724 3324.55C-897.785 3334.55 -896.134 3337.89 -896.134 3447.89C-896.134 3566.23 -879.619 3601.23 -823.469 3601.23C-783.834 3601.23 -697.957 3522.9 -697.957 3486.23C-697.957 3444.56 -658.321 3497.89 -625.292 3584.57C-608.777 3626.23 -588.959 3669.57 -579.05 3681.24C-555.929 3707.91 -498.128 3706.24 -458.492 3677.9C-440.326 3666.24 -392.433 3637.9 -351.146 3614.57C-309.859 3591.23 -235.542 3549.56 -185.998 3521.23C-136.453 3494.56 -24.1528 3449.56 61.7241 3424.56C223.569 3376.22 311.097 3332.88 367.248 3267.88C393.671 3237.88 398.626 3211.21 395.323 3134.54L392.019 3036.2L479.548 3019.53C527.441 3007.87 586.894 2982.86 614.97 2961.2L662.862 2922.86L735.527 2961.2C829.661 3011.2 846.177 3011.2 918.842 2956.2C1080.69 2834.52 1179.78 2704.52 1211.15 2566.17C1224.37 2511.17 1247.49 2434.5 1265.65 2396.17C1326.76 2256.16 1366.39 2132.82 1366.39 2077.81C1366.39 2041.14 1382.91 2001.14 1417.59 1957.81C1510.07 1841.13 1581.08 1721.13 1581.08 1676.12C1581.08 1641.12 1599.25 1624.45 1693.39 1577.79C1754.49 1546.12 1936.15 1452.78 2099.65 1369.44C2261.49 1286.1 2411.78 1217.76 2433.25 1217.76C2482.79 1217.76 2709.04 1277.77 2778.41 1309.44C2806.48 1321.1 2862.63 1346.11 2903.92 1364.44C2945.21 1382.77 3012.92 1432.78 3055.86 1476.11C3123.57 1544.45 3140.08 1554.45 3187.97 1546.12C3270.55 1534.45 3460.47 1566.12 3544.69 1606.12C3642.13 1652.79 3767.64 1652.79 3909.67 1602.79C3969.12 1581.12 4084.73 1559.45 4165.65 1552.78C4344.01 1537.78 4408.42 1511.11 4495.95 1417.78C4573.57 1336.1 4680.91 1282.77 4788.26 1271.1C4852.67 1264.43 4879.09 1272.77 4960.01 1317.77C5082.22 1389.44 5158.19 1457.78 5191.22 1526.12C5219.29 1587.79 5275.44 1619.45 5379.49 1632.79C5447.2 1642.79 5457.11 1649.46 5490.14 1717.79C5509.95 1759.46 5552.89 1851.13 5587.57 1921.14C5620.6 1992.81 5653.63 2051.15 5661.89 2051.15C5668.5 2051.15 5678.4 2066.15 5685.01 2082.81C5714.74 2181.15 6000.44 2401.17 6096.23 2401.17C6150.73 2401.17 6482.68 2317.83 6609.84 2272.82C6710.58 2237.82 6756.82 2231.16 6988.03 2229.49L7248.96 2226.16L7296.86 2134.48C7321.63 2084.48 7343.1 2027.81 7344.75 2007.81C7344.75 1989.47 7351.35 1967.81 7357.96 1957.81C7377.78 1936.14 7407.5 1739.46 7419.06 1566.12C7424.02 1461.11 7420.72 1402.78 7402.55 1351.11C7376.13 1276.1 7369.52 1137.76 7390.99 1109.43C7397.59 1099.42 7473.56 1039.42 7559.44 974.417C7645.32 909.414 7732.85 837.743 7752.66 816.075C7945.89 596.062 7939.28 607.73 7987.17 426.053C8006.99 352.715 8030.11 262.71 8041.67 226.041C8061.49 152.704 8096.17 61.0321 8122.59 12.696C8140.76 -22.306 8145.72 -180.648 8129.2 -267.32C8115.99 -340.657 8132.5 -383.993 8228.29 -512.334C8305.91 -617.34 8350.5 -740.68 8352.15 -862.354C8352.15 -929.024 8378.57 -982.361 8505.74 -1170.7C8627.95 -1352.38 8646.11 -1439.05 8576.75 -1505.72C8550.33 -1529.06 8502.43 -1550.73 8462.8 -1557.39C8335.64 -1577.39 8277.83 -1604.06 8150.67 -1702.4C8038.37 -1790.74 8013.6 -1804.07 7919.46 -1815.74C7689.91 -1845.74 7643.66 -1862.41 7608.98 -1930.75C7569.35 -2012.42 7549.53 -2025.75 7460.35 -2039.09C7419.06 -2044.09 7341.44 -2055.76 7286.95 -2064.09C7184.55 -2079.09 6928.57 -2189.1 6879.03 -2239.1C6862.51 -2254.1 6834.44 -2320.77 6816.27 -2387.44C6763.43 -2572.45 6750.21 -2595.79 6685.81 -2635.79C6611.49 -2680.79 6560.29 -2737.46 6517.36 -2820.8C6461.21 -2929.14 6173.85 -3130.82 6073.11 -3132.48C6035.12 -3132.48 5940.99 -3064.15 5940.99 -3035.81C5940.99 -3029.14 5929.43 -3010.81 5917.87 -2994.14C5896.4 -2967.47 5888.14 -2972.47 5800.61 -3064.15C5747.77 -3119.15 5689.96 -3169.15 5670.15 -3175.82C5651.98 -3182.49 5607.39 -3205.82 5571.06 -3230.82C5495.09 -3280.82 5415.82 -3282.49 5029.37 -3239.16L4786.61 -3212.49L4581.82 -3280.82C4353.92 -3357.5 4335.75 -3359.16 4183.82 -3324.16C4104.55 -3305.83 4059.95 -3282.49 4013.71 -3240.82C3979.03 -3209.15 3937.75 -3177.49 3922.88 -3172.48C3906.37 -3167.48 3838.66 -3190.82 3770.95 -3224.15L3648.74 -3284.16L3534.79 -3245.82C3394.41 -3195.82 3377.89 -3155.82 3470.38 -3079.15C3503.41 -3052.48 3529.83 -3020.81 3529.83 -3009.14C3529.83 -2987.47 3425.79 -2909.14 3341.56 -2865.8C3315.14 -2852.47 3254.03 -2794.13 3204.49 -2739.13L3115.31 -2637.45L3037.69 -2652.46C2933.65 -2674.12 2798.23 -2715.79 2780.06 -2734.13C2770.15 -2742.46 2743.73 -2749.13 2718.95 -2749.13C2568.67 -2749.13 2444.81 -2849.13 2358.93 -3037.48C2330.86 -3100.81 2307.74 -3157.48 2307.74 -3165.82C2307.74 -3194.15 2254.89 -3232.49 2215.25 -3232.49C2192.13 -3232.49 2150.85 -3219.15 2121.12 -3204.15C2091.39 -3189.15 2020.38 -3167.48 1960.92 -3157.48C1861.84 -3140.82 1853.58 -3135.82 1848.62 -3094.15C1845.32 -3069.15 1832.11 -3049.14 1820.55 -3049.14C1799.08 -3049.14 1711.55 -3082.48 1643.84 -3117.48C1605.86 -3137.48 1321.8 -3137.48 1310.24 -3117.48C1305.29 -3109.15 1245.83 -3097.48 1178.12 -3090.81C1074.08 -3082.48 1046 -3084.15 1004.72 -3109.15C956.825 -3137.48 953.522 -3137.48 922.144 -3109.15C900.675 -3089.15 885.812 -3045.81 877.555 -2985.81C867.646 -2902.47 857.737 -2882.47 791.677 -2820.8C740.482 -2770.8 702.497 -2749.13 669.468 -2749.13C613.318 -2749.13 570.379 -2725.79 487.805 -2654.12C454.775 -2624.12 396.974 -2585.79 360.642 -2567.45C325.961 -2549.12 281.371 -2515.78 264.856 -2492.45C221.918 -2437.44 137.692 -2112.42 149.252 -2050.75C157.51 -2009.09 152.555 -1999.09 114.571 -1985.75C36.9516 -1959.08 -65.4404 -1974.08 -123.242 -2022.42C-152.969 -2045.75 -202.513 -2085.76 -233.891 -2110.76C-308.208 -2172.43 -423.811 -2174.09 -541.066 -2117.42C-734.289 -2025.75 -830.075 -1997.42 -887.877 -2015.75C-980.36 -2045.75 -988.617 -2070.76 -932.467 -2152.43C-836.681 -2294.1 -830.075 -2319.1 -830.075 -2514.11C-830.075 -2614.12 -838.332 -2717.46 -846.59 -2742.46C-856.498 -2765.8 -874.665 -2860.8 -886.226 -2950.81C-910.998 -3120.82 -932.467 -3165.82 -995.223 -3165.82C-1039.81 -3165.82 -1110.83 -3129.15 -1150.46 -3085.81C-1176.89 -3054.15 -1185.14 -3054.14 -1216.52 -3074.15C-1234.69 -3085.81 -1284.23 -3114.15 -1325.52 -3137.48C-1389.93 -3174.15 -1401.49 -3187.49 -1409.74 -3245.82C-1418 -3317.49 -1447.73 -3365.83 -1482.41 -3365.83C-1520.39 -3365.83 -1588.1 -3432.5 -1642.6 -3525.84C-1672.33 -3577.51 -1713.62 -3647.51 -1735.09 -3680.85C-1754.9 -3714.18 -1776.37 -3752.52 -1782.98 -3765.85C-1825.92 -3869.19 -1837.48 -3907.53 -1837.48 -3942.53C-1837.48 -3962.53 -1844.08 -3984.2 -1852.34 -3989.2C-1858.95 -3994.2 -1870.51 -4022.53 -1877.11 -4050.87C-1882.07 -4080.87 -1906.84 -4129.21 -1929.96 -4160.87C-1981.16 -4229.21 -2038.96 -4232.55 -2109.97 -4172.54Z" stroke="#EDE3D3" stroke-width="10" stroke-dasharray="30 30"/>
<path d="M3047.27 1141.54L3047.45 1147.66C3045.09 1147.43 3041.96 1150.27 3041.31 1152.1C3040.26 1152.23 3039.2 1152.28 3038.13 1152.3C3037.2 1147.4 3032.63 1147.51 3028.29 1147.89C3024.11 1148.28 3021.69 1151.13 3019.61 1155.78C3015.68 1164.55 2997.87 1154.2 2992.99 1163.78C3002.56 1171.19 3035.08 1174.24 3038.18 1161.41C3039.82 1160.97 3041.41 1160.35 3042.92 1159.57C3044.42 1164.89 3045.31 1170.44 3046.35 1176.95C3049.5 1178.92 3052.92 1176.87 3055.84 1179.26C3044.33 1188.89 3015.9 1170.03 3002.91 1174.43C2991.31 1178.36 2984.88 1190.94 2976.21 1198.58L2954.46 1217.78C2949.81 1221.87 2945.48 1226.76 2943.06 1231.21C2941.21 1232.56 2936.88 1232.49 2938.29 1237.48C2939.01 1239.99 2939.77 1241.34 2943.19 1240.66C2944.13 1241.96 2946.18 1242.38 2947.41 1243.04C2947.69 1244.71 2947.98 1246.79 2949.27 1247.24C2955.59 1249.43 2959.98 1244.27 2964.06 1245.69C2967.27 1246.81 2969.14 1254.36 2974.59 1254.72L2979.11 1272.75C2980.64 1278.88 2989.45 1274.74 2992.69 1276.74C2997.51 1279.7 3005.03 1282.01 3009.09 1276.63L3017.53 1277.27C3018.64 1277.35 3019.55 1279.69 3021.09 1279.06C3022.15 1278.62 3022.83 1277.95 3022.44 1276.8C3023.1 1276.8 3023.86 1277.32 3024.49 1277.22L3024.6 1290.8C3024.63 1292.88 3025.27 1294.09 3026.13 1295.06C3026.78 1295.81 3028.58 1295.1 3029.25 1295.65C3030.59 1296.75 3031.97 1297.6 3033.74 1297.81C3033.87 1302.94 3034.13 1308.25 3031.8 1312.94C3030.76 1312.98 3029.76 1314.15 3028.72 1314.33L3020.89 1313.04C3014.73 1312.02 3006.98 1309.92 3000.08 1311.64C2991.53 1313.78 2988.65 1307.12 2983.02 1305.28C2966.08 1299.73 2951.68 1293.78 2938.36 1281.38L2919.66 1277.29C2916.45 1276.59 2910.3 1267.67 2906.44 1271.97C2900.01 1279.12 2894.67 1282.82 2885.07 1285.11C2878.83 1286.59 2874.88 1295.24 2870.12 1299.13C2860 1307.4 2848.26 1308.64 2835.93 1310.8C2829.96 1311.86 2825.02 1318.29 2817.96 1314.7L2839.13 1303.85C2842.32 1302.22 2838.33 1295.56 2836.12 1291.65C2843.21 1287.84 2844.38 1280.96 2845.89 1272.7C2851.62 1276.26 2850.69 1283.8 2855.19 1287.7C2862.95 1294.42 2872.95 1290.29 2878.92 1283.11C2882.13 1279.25 2891.55 1276.59 2889.77 1269.82C2887.98 1263.04 2872.28 1267.89 2866.53 1264.13C2865.32 1263.34 2865.85 1258.34 2868.38 1258.72C2879.27 1260.37 2891.45 1263.76 2901.93 1260.96C2907.12 1259.57 2915.3 1251.09 2914.85 1245.47C2913.75 1231.96 2905.33 1215.91 2892.33 1210.83C2884.4 1207.74 2873.3 1207.74 2865.32 1208.49C2837.93 1211.05 2839.82 1242.14 2836.98 1246.03C2828.2 1258.07 2810.39 1264.38 2797.06 1271.11C2792.55 1273.38 2788.99 1265.89 2787.73 1262.92C2783.52 1252.99 2800.74 1244.36 2796.71 1236.33C2788.43 1219.84 2747.85 1241.86 2726 1247.95C2645.62 1270.38 2685.37 1256.72 2622.64 1262.18L2505.48 1272.37C2483.42 1274.29 2462.34 1272.91 2440.58 1275.62C2438.7 1281.31 2439.91 1286.73 2438.82 1292.53C2429.47 1295.11 2421.01 1296.71 2413.11 1302.33L2409.85 1277.84C2396.45 1278.6 2373.24 1267.43 2367.45 1272.38C2359.32 1279.32 2355.31 1276.5 2346.76 1277.66C2325.84 1280.48 2306.78 1292.01 2287.47 1299.36C2273.85 1304.54 2260.87 1309.09 2250.05 1318.38C2240.94 1310.6 2229.76 1300.13 2220.13 1304.83L2201.41 1313.98C2189.72 1311.09 2177.77 1304.54 2165.31 1307.33C2159.18 1311.93 2150.72 1319.09 2145.98 1326.53C2141.51 1333.54 2137.41 1349.49 2126.79 1348.23C2114.35 1346.77 2105.6 1346.21 2094.54 1353.42C2081.64 1361.82 2057.92 1340.39 2040.59 1372.32C2037.07 1378.78 2034.42 1390.61 2024.67 1389.34C2014.92 1388.07 2007.88 1389.28 1998.17 1393.51C1991.8 1396.29 1980.6 1388.49 1973.14 1393.43C1960.38 1401.87 1946.5 1408.04 1930.54 1409.22L1924.75 1424.21C1890.11 1411.16 1881.26 1401.35 1845.59 1388.03C1837.17 1384.89 1831.43 1380.98 1821.58 1384.42C1811.47 1387.95 1796.64 1375.62 1789.38 1380.96C1787.36 1382.45 1786.85 1386.3 1784.68 1389.07L1774.08 1402.61L1757.33 1452.36C1741.66 1458.47 1737.66 1439.88 1722.87 1440.05C1699.62 1440.32 1710.33 1409.53 1695.97 1404.74C1683.93 1411.01 1658.82 1410.6 1658.01 1415.57L1656.31 1426.03C1655.89 1428.6 1648.89 1425.92 1645.9 1427.5C1642.92 1429.07 1643.67 1434.96 1641.92 1437.68C1635.87 1447.13 1641 1452.67 1642.35 1461.14C1643.04 1465.49 1637.97 1473.54 1643.03 1479.02C1631.59 1500.03 1655.16 1497.4 1657.67 1521.7C1658.08 1525.65 1660.6 1531.21 1658.95 1535.17C1657.79 1538 1650.71 1540.02 1649.91 1543.73C1643.2 1574.84 1639.52 1605.69 1634.78 1636.96C1634.21 1640.7 1639.13 1645.12 1636.36 1648.99C1625.88 1652.51 1613.89 1649.81 1603.23 1654.12C1586.01 1661.08 1580.95 1699.16 1574.99 1709.99C1569.78 1719.46 1558.95 1725.51 1551.49 1733.83C1542.67 1743.65 1531.16 1751.42 1519.86 1758.65C1512.23 1763.53 1500.96 1764.75 1492.29 1765.09C1487.5 1765.28 1481.57 1754.63 1484.06 1752.79L1488.88 1749.25C1491.43 1747.37 1473.44 1726.24 1477.82 1730.47C1459.19 1712.48 1433.49 1730.91 1416.62 1736.47C1410.95 1738.33 1402.57 1738.87 1398.5 1744.24C1374.49 1729.33 1369.82 1751.42 1353.11 1738.86C1348.56 1735.45 1343.51 1729.28 1347.25 1722.11C1349.18 1718.42 1358.46 1713.18 1355.83 1708.11C1350.8 1698.43 1349.07 1690.33 1346.92 1679.51C1345.09 1670.27 1335.15 1659.94 1327.2 1655.45C1315.26 1648.68 1300.07 1652.04 1289.56 1644.58C1280.9 1638.43 1276.08 1634.14 1264.38 1634.3C1250.57 1634.49 1232.81 1630.2 1220.19 1638.5C1209.29 1645.65 1200.93 1655.3 1187.89 1658.17C1177.62 1660.43 1175.67 1654.2 1169.53 1649.34C1156.18 1638.78 1140.31 1632.21 1132.18 1614.22C1145.64 1606.13 1154.91 1594.12 1164.72 1583.45C1169.02 1578.78 1176.2 1576.59 1174.35 1566.96C1172.97 1559.81 1175.92 1553.69 1179.44 1547.49C1183.41 1540.47 1175.73 1533.04 1174.68 1526.51C1173.51 1519.32 1182.27 1518.95 1186.08 1516.1C1192.32 1511.45 1193.54 1502.64 1198.93 1497.27C1203.2 1493.01 1206.26 1489.91 1206.24 1484.49C1206.2 1479.23 1204.55 1474.95 1200.84 1470.33C1195.94 1464.26 1202.21 1456.14 1200.97 1449.37C1199.6 1441.86 1187.17 1440.84 1184.06 1433.85C1178.98 1422.44 1203.87 1405.83 1195.57 1393.76C1181 1372.55 1175.63 1379.37 1157.99 1368.13L1077.75 1316.96C1045.38 1296.32 1047.82 1322.34 1025.16 1308.41C994.27 1289.42 985.316 1313.33 964.218 1305.05C934.506 1252.98 962.334 1261.53 950.735 1228.46C948.306 1222.17 956.966 1213.55 955.854 1206.33C953.334 1189.97 953.345 1173.36 948.567 1157.84C942.62 1138.49 940.294 1119.31 936.015 1099.7C933.848 1089.79 924.791 1082.24 923.179 1072.37L919.116 1047.38C917.55 1037.75 909.912 1036.93 901.991 1033.6C894.024 1030.24 886.749 1024.25 877.023 1026C865.991 1027.97 860.566 1019.59 853.609 1014.88C838.663 1004.77 830.412 993.629 825.759 976.147C821.253 959.187 810.664 944.268 804.74 927.512C800.745 916.19 796.852 904.392 788.272 895.917C777.173 884.958 755.655 877.482 759.582 866.932C767.662 845.206 770.091 826.431 784.766 815.324C793.073 809.04 798.748 798.16 807.804 793.883C816.861 789.606 823.886 788.835 830.922 781.642C841.182 771.148 858.943 767.336 868.375 756.321C877.783 745.328 884.434 737.92 898.949 734.108C907.234 731.941 911.081 719.178 916.461 713.823C919.15 711.146 924.065 711.588 925.37 709.558C929.49 703.148 923.747 686.676 920.399 680.391C912.795 666.176 889.734 644.553 909.742 630.814C916.472 626.186 924.893 629.078 930.851 635.84C945.741 652.721 947.353 641.841 968.451 655.5C976.214 660.526 988.425 667.287 997.981 663.839C1009.26 659.755 1019.48 657.032 1030.79 653.004L1044.1 648.251C1083.51 634.195 1061.12 617.904 1077.69 605.618C1084 600.932 1092.61 599.673 1100.08 602.94C1118.02 610.791 1113.55 594.023 1146.62 594.693C1155.3 594.863 1160.1 601.715 1161.41 609.339C1163.37 620.865 1169.39 629.022 1174.89 638.744L1186.37 658.983C1194.73 673.731 1184.12 702.025 1196.07 716.66C1218.65 744.318 1221.92 735.333 1245.76 733.756L1286.07 731.079L1320.04 718.463C1332.5 713.835 1365.74 713.324 1379.91 715.264L1420.49 720.823C1434.08 722.684 1444.4 733.484 1456.25 738.09C1468.1 742.696 1480.1 742.015 1489.87 750.569C1498.49 758.102 1506.83 764.568 1513.78 774.223C1520.61 783.729 1527.84 792.068 1538.89 796.765C1541.52 797.888 1542.55 802.516 1545.33 803.73L1568.67 813.85C1584.02 820.498 1596.99 826.442 1608.25 838.434C1613.97 844.514 1619.22 847.884 1622.68 856.676C1624.08 860.238 1627.65 867.953 1630.41 870.811C1638.85 879.57 1643.91 888.816 1650.33 898.685C1656.84 908.68 1670.79 902.622 1678.91 897.483L1710.94 877.199C1722.55 869.847 1735.07 861.554 1749.13 865.275C1764.18 869.257 1778.73 864.481 1786.7 850.765C1788.46 847.748 1793.21 846.556 1795.25 843.924C1806.62 829.176 1823.07 824.979 1841.06 825.104C1851.17 825.172 1861.08 823.561 1870.8 828.133C1878.85 831.933 1885.24 829.607 1893.31 828.382C1934.25 822.165 1968.01 840.124 1979.26 827.044C1985.14 820.203 1986.21 814.564 1985.43 804.91C1984.87 797.808 1994.94 792.181 1998.47 786.532C2001.81 781.166 1999 770.955 2004.21 767.427C2034.11 747.188 2023.07 727.823 2077.08 734.493C2084.07 735.356 2091.39 726.132 2099.94 732.383C2106.2 736.955 2111.38 728.674 2115.64 726.688C2131.25 719.416 2144.12 708.582 2150.39 693.051L2169.02 682.728C2176.2 678.746 2182.84 678.28 2188.23 671.689C2205.02 651.155 2233.06 679.404 2272.42 679.857C2284.59 679.993 2293.62 686.721 2303.19 692.268C2320.9 702.547 2341.15 694.152 2359.99 712.973C2365.02 722.411 2371.94 730.33 2382.78 735.185C2391.14 738.941 2397.1 748.016 2407.12 749.151C2416.41 750.195 2426.67 749.945 2434.72 755.799C2441.54 760.768 2448.44 766.542 2457.14 764.251C2458.31 760.201 2457.65 756.536 2459.91 753.019C2491.89 750.603 2522.35 738.135 2545.25 715.718C2549 712.054 2551.76 704.135 2557.88 704.271C2569.52 704.532 2580.2 714.311 2591.49 714.64L2615.88 715.366C2628.23 715.729 2637.87 714.595 2647.35 706.96C2654.11 701.514 2665.12 701.14 2670.92 694.186C2688.08 673.606 2712.12 635.658 2729.12 628.125L2757.65 615.476C2802.29 595.702 2808.59 612.867 2834.82 611.188C2844.69 610.553 2859.32 601.738 2866.73 595.861C2887.41 579.434 2925.63 587.171 2950.5 590.994C2966.58 593.467 2982.15 600.683 2986.62 617.45C2991.09 634.218 3023.4 648.671 3040.71 649.567L3081.52 651.7C3087.9 652.029 3094.72 655.568 3101.15 656.93C3113.53 659.562 3124.99 658.359 3136.95 660.004C3148.23 661.558 3157.7 675.58 3170.24 675.354C3196.26 674.866 3250.19 702.218 3263.57 716.16L3287.04 740.631C3310.23 764.795 3315.01 780.156 3342.87 804.57C3347.43 808.563 3351.81 818.206 3354.99 824.241C3386.37 883.79 3369.21 898.186 3390.84 936.168C3398.01 948.75 3397.43 963.759 3394.95 977.599C3394.57 979.664 3397.81 982.273 3398.22 983.669C3397.84 982.387 3383.25 1013.24 3381.86 1021.28C3379.06 1037.5 3379.87 1055.29 3370.71 1069.64C3365.54 1077.73 3360.16 1108.01 3345.32 1114.36C3340.19 1116.55 3332.29 1119.34 3327.61 1120.68C3320.43 1122.73 3278.85 1118.92 3263.7 1124.88C3256.67 1127.64 3251.68 1125.72 3244.31 1126.07C3228.79 1126.83 3211.97 1133.44 3196.37 1127.33C3169.91 1116.95 3172.67 1103.06 3135.94 1106.83C3108.71 1109.62 3082.84 1112.69 3056.16 1117.85C3049.47 1119.15 3043.77 1122.09 3042.35 1127.45C3041.19 1131.85 3040.94 1140.27 3047.26 1141.53L3047.27 1141.54Z" fill="#2F3F2F"/>
</svg>
