<svg width="2640" height="1180" viewBox="0 0 2640 1180" fill="none" xmlns="http://www.w3.org/2000/svg">
<path d="M2288.16 555.745L2288.34 561.859C2285.98 561.633 2282.85 564.469 2282.2 566.307C2281.15 566.431 2280.09 566.488 2279.02 566.499C2278.09 561.599 2273.52 561.712 2269.18 562.098C2265 562.483 2262.58 565.331 2260.5 569.982C2256.57 578.752 2238.76 568.405 2233.88 577.98C2243.46 585.388 2275.97 588.44 2279.07 575.609C2280.71 575.178 2282.3 574.554 2283.81 573.771C2285.31 579.092 2286.2 584.64 2287.24 591.151C2290.4 593.125 2293.81 591.072 2296.73 593.466C2285.22 603.097 2256.79 584.231 2243.8 588.633C2232.2 592.558 2225.77 605.14 2217.1 612.786L2195.35 631.981C2190.7 636.076 2186.37 640.966 2183.95 645.413C2182.1 646.763 2177.77 646.695 2179.19 651.687C2179.9 654.194 2180.66 655.544 2184.08 654.863C2185.02 656.168 2187.07 656.588 2188.3 657.246C2188.58 658.913 2188.87 660.99 2190.16 661.443C2196.48 663.633 2200.87 658.471 2204.95 659.889C2208.16 661.012 2210.03 668.568 2215.48 668.919L2220 686.958C2221.53 693.084 2230.34 688.943 2233.58 690.94C2238.41 693.901 2245.92 696.215 2249.98 690.837L2258.42 691.473C2259.53 691.552 2260.45 693.889 2261.98 693.265C2263.04 692.823 2263.72 692.153 2263.33 691.008C2263.99 691.008 2264.75 691.518 2265.38 691.427L2265.5 705.007C2265.52 707.083 2266.17 708.297 2267.02 709.261C2267.67 710.01 2269.47 709.307 2270.14 709.851C2271.48 710.952 2272.86 711.802 2274.63 712.018C2274.76 717.146 2275.02 722.455 2272.69 727.14C2271.65 727.186 2270.65 728.354 2269.62 728.536L2261.78 727.243C2255.62 726.222 2247.87 724.123 2240.97 725.847C2232.42 727.98 2229.54 721.321 2223.91 719.483C2206.97 713.935 2192.57 707.979 2179.25 695.579L2160.55 691.495C2157.34 690.792 2151.19 681.875 2147.33 686.175C2140.9 693.322 2135.56 697.02 2125.96 699.312C2119.72 700.798 2115.77 709.443 2111.01 713.334C2100.89 721.604 2089.15 722.841 2076.82 725.008C2070.85 726.063 2065.91 732.495 2058.85 728.899L2080.02 718.053C2083.21 716.42 2079.22 709.76 2077.01 705.858C2084.1 702.046 2085.27 695.16 2086.78 686.901C2092.51 690.463 2091.58 698.007 2096.08 701.898C2103.84 708.626 2113.84 704.496 2119.81 697.315C2123.02 693.458 2132.44 690.792 2130.66 684.019C2128.87 677.246 2113.17 682.091 2107.42 678.336C2106.21 677.541 2106.74 672.538 2109.27 672.924C2120.16 674.569 2132.34 677.961 2142.82 675.159C2148.01 673.775 2156.19 665.289 2155.74 659.673C2154.64 646.162 2146.22 630.109 2133.22 625.038C2125.29 621.941 2114.19 621.941 2106.21 622.69C2078.82 625.254 2080.71 656.338 2077.87 660.229C2069.09 672.277 2051.28 678.585 2037.95 685.313C2033.44 687.581 2029.88 680.094 2028.62 677.122C2024.41 667.195 2041.63 658.562 2037.61 650.53C2029.32 634.046 1988.74 656.066 1966.89 662.158C1886.51 684.586 1926.26 670.927 1863.53 676.384L1746.38 686.572C1724.31 688.489 1703.23 687.116 1681.47 689.828C1679.59 695.511 1680.8 700.934 1679.71 706.731C1670.36 709.318 1661.9 710.918 1654 716.533L1650.74 692.04C1637.34 692.8 1614.14 681.637 1608.34 686.583C1600.21 693.526 1596.2 690.701 1587.65 691.858C1566.73 694.683 1547.68 706.209 1528.36 713.561C1514.74 718.745 1501.76 723.295 1490.94 732.586C1481.83 724.803 1470.65 714.332 1461.02 719.029L1442.3 728.184C1430.61 725.291 1418.66 718.745 1406.2 721.536C1400.07 726.131 1391.61 733.289 1386.87 740.731C1382.4 747.742 1378.3 763.693 1367.68 762.434C1355.24 760.97 1346.49 760.414 1335.44 767.618C1322.53 776.025 1298.81 754.595 1281.48 786.519C1277.96 792.985 1275.31 804.818 1265.56 803.547C1255.81 802.276 1248.77 803.479 1239.06 807.711C1232.69 810.49 1221.49 802.696 1214.03 807.631C1201.27 816.072 1187.39 822.243 1171.43 823.423L1165.64 838.409C1131 825.363 1122.15 815.55 1086.48 802.231C1078.06 799.089 1072.32 795.186 1062.47 798.623C1052.37 802.152 1037.53 789.82 1030.27 795.163C1028.25 796.649 1027.74 800.507 1025.57 803.275L1014.97 816.809L998.219 866.567C982.546 872.67 978.551 854.088 963.763 854.258C940.509 854.519 951.222 823.729 936.866 818.942C924.824 825.215 899.709 824.807 898.903 829.776L897.2 840.236C896.78 842.8 889.778 840.122 886.793 841.699C883.808 843.276 884.557 849.164 882.81 851.887C876.761 861.337 881.89 866.873 883.241 875.348C883.933 879.693 878.86 887.747 883.922 893.227C872.482 914.237 896.054 911.605 898.562 935.906C898.971 939.854 901.49 945.413 899.845 949.372C898.676 952.208 891.605 954.227 890.799 957.937C884.092 989.044 880.415 1019.89 875.671 1051.17C875.104 1054.9 880.018 1059.32 877.249 1063.19C866.773 1066.71 854.777 1064.01 844.121 1068.32C826.904 1075.29 821.842 1113.36 815.884 1124.19C810.675 1133.67 799.836 1139.71 792.38 1148.03C783.562 1157.85 772.054 1165.62 760.75 1172.85C753.123 1177.73 741.854 1178.95 733.183 1179.3C728.394 1179.49 722.458 1168.84 724.955 1167L729.767 1163.46C732.32 1161.57 714.332 1140.44 718.713 1144.67C700.078 1126.68 674.383 1145.11 657.507 1150.67C651.844 1152.53 643.457 1153.08 639.394 1158.44C615.379 1143.54 610.715 1165.62 593.997 1153.07C589.446 1149.65 584.396 1143.48 588.141 1136.31C590.071 1132.62 599.354 1127.38 596.721 1122.31C591.693 1112.63 589.957 1104.53 587.812 1093.71C585.985 1084.48 576.043 1074.14 568.087 1069.65C556.148 1062.89 540.963 1066.25 530.454 1058.78C521.794 1052.63 516.971 1048.34 505.27 1048.5C491.458 1048.69 473.697 1044.41 461.076 1052.7C450.181 1059.86 441.817 1069.5 428.777 1072.37C418.506 1074.63 416.565 1068.4 410.425 1063.54C397.067 1052.98 381.201 1046.41 373.075 1028.42C386.535 1020.33 395.796 1008.32 405.613 997.655C409.915 992.981 417.087 990.791 415.237 981.16C413.864 974.013 416.815 967.898 420.333 961.692C424.305 954.67 416.622 947.239 415.566 940.716C414.398 933.523 423.159 933.149 426.972 930.301C433.214 925.65 434.429 916.847 439.82 911.469C444.087 907.215 447.151 904.118 447.128 898.695C447.094 893.431 445.437 889.154 441.726 884.537C436.835 878.467 443.099 870.345 441.862 863.572C440.489 856.062 428.062 855.041 424.952 848.052C419.868 836.64 444.756 820.031 436.46 807.96C421.888 786.757 416.52 793.575 398.883 782.332L318.645 731.168C286.266 710.52 288.706 736.545 266.053 722.614C235.161 703.623 226.206 727.538 205.108 719.256C175.396 667.184 203.224 675.738 191.626 642.668C189.197 636.371 197.856 627.749 196.744 620.534C194.225 604.175 194.236 587.567 189.458 572.047C183.511 552.693 181.184 533.509 176.906 513.905C174.738 503.99 165.682 496.446 164.07 486.576L160.007 461.584C158.441 451.952 150.803 451.135 142.881 447.8C134.914 444.442 127.639 438.452 117.913 440.199C106.882 442.173 101.457 433.789 94.4999 429.081C79.5531 418.973 71.3023 407.832 66.6492 390.35C62.1436 373.39 51.5549 358.472 45.6306 341.715C41.6357 330.393 37.743 318.595 29.1631 310.12C18.0636 299.161 -3.4543 291.685 0.472495 281.135C8.55307 259.41 10.9818 240.634 25.6562 229.528C33.9637 223.243 39.6383 212.363 48.6949 208.086C57.7515 203.809 64.7766 203.038 71.813 195.845C82.0726 185.351 99.834 181.54 109.265 170.524C118.674 159.531 125.324 152.123 139.84 148.311C148.125 146.144 151.972 133.381 157.351 128.027C160.041 125.349 164.955 125.792 166.26 123.761C170.38 117.351 164.637 100.879 161.29 94.5937C153.686 80.3788 130.624 58.7557 150.633 45.0173C157.363 40.3887 165.784 43.2816 171.742 50.043C186.632 66.9239 188.244 56.0444 209.342 69.7034C217.104 74.7291 229.316 81.4905 238.872 78.0417C250.153 73.9577 260.367 71.2349 271.682 67.2076L284.995 62.4541C324.399 48.398 302.007 32.107 318.577 19.8207C324.887 15.1354 333.501 13.8761 340.969 17.1434C358.912 24.9939 354.44 8.22643 387.511 8.89577C396.194 9.06594 400.994 15.9181 402.299 23.5418C404.263 35.068 410.278 43.2248 415.782 52.9473L427.256 73.1862C435.62 87.9343 425.009 116.228 436.96 130.863C459.544 158.521 462.813 149.536 486.646 147.959L526.958 145.282L560.926 132.667C573.387 128.038 606.629 127.527 620.804 129.467L661.377 135.026C674.973 136.887 685.29 147.687 697.138 152.293C708.987 156.899 720.994 156.218 730.766 164.772C739.38 172.305 747.721 178.771 754.667 188.426C761.499 197.933 768.728 206.271 779.782 210.968C782.415 212.091 783.437 216.719 786.217 217.933L809.562 228.053C824.906 234.701 837.879 240.645 849.137 252.637C854.857 258.718 860.112 262.087 863.573 270.879C864.969 274.441 868.544 282.156 871.302 285.015C879.745 293.773 884.796 303.019 891.219 312.889C897.734 322.883 911.682 316.825 919.796 311.686L951.835 291.402C963.445 284.05 975.963 275.757 990.025 279.478C1005.07 283.46 1019.62 278.684 1027.59 264.968C1029.35 261.951 1034.1 260.76 1036.14 258.128C1047.51 243.38 1063.96 239.182 1081.95 239.307C1092.06 239.375 1101.97 237.764 1111.69 242.336C1119.75 246.136 1126.13 243.811 1134.2 242.585C1175.14 236.368 1208.9 254.327 1220.15 241.247C1226.03 234.406 1227.1 228.768 1226.32 219.113C1225.76 212.011 1235.84 206.384 1239.36 200.735C1242.7 195.369 1239.89 185.158 1245.1 181.63C1275 161.391 1263.96 142.026 1317.97 148.697C1324.96 149.559 1332.28 140.336 1340.83 146.586C1347.09 151.158 1352.27 142.877 1356.53 140.891C1372.14 133.619 1385.01 122.785 1391.28 107.254L1409.91 96.9307C1417.09 92.9487 1423.73 92.4836 1429.12 85.8923C1445.91 65.3584 1473.95 93.6067 1513.31 94.0605C1525.48 94.1966 1534.51 100.924 1544.08 106.472C1561.79 116.75 1582.04 108.355 1600.88 127.176C1605.91 136.614 1612.83 144.533 1623.67 149.389C1632.03 153.144 1637.99 162.219 1648.01 163.354C1657.3 164.398 1667.56 164.148 1675.61 170.002C1682.43 174.971 1689.33 180.745 1698.03 178.454C1699.2 174.404 1698.54 170.739 1700.8 167.222C1732.78 164.806 1763.24 152.338 1786.14 129.921C1789.89 126.257 1792.65 118.338 1798.77 118.474C1810.41 118.735 1821.09 128.514 1832.38 128.843L1856.77 129.569C1869.12 129.932 1878.76 128.798 1888.24 121.163C1895 115.718 1906.01 115.343 1911.81 108.389C1928.97 87.8095 1953.01 49.8615 1970.01 42.3286L1998.54 29.6793C2043.18 9.90545 2049.48 27.07 2075.72 25.391C2085.58 24.7557 2100.21 15.9408 2107.62 10.0643C2128.3 -6.36286 2166.52 1.37423 2191.39 5.1974C2207.47 7.67054 2223.04 14.8858 2227.51 31.6532C2231.98 48.4207 2264.29 62.8739 2281.6 63.7701L2322.41 65.9029C2328.79 66.2319 2335.61 69.7715 2342.05 71.1328C2354.42 73.7648 2365.88 72.5623 2377.84 74.2072C2389.12 75.7615 2398.59 89.7835 2411.13 89.5566C2437.15 89.0688 2491.08 116.421 2504.46 130.364L2527.93 154.834C2551.12 178.998 2555.9 194.359 2583.76 218.773C2588.32 222.766 2592.7 232.409 2595.88 238.445C2627.26 297.993 2610.1 312.389 2631.73 350.371C2638.9 362.953 2638.33 377.962 2635.84 391.802C2635.47 393.867 2638.7 396.476 2639.11 397.872C2638.73 396.59 2624.14 427.447 2622.75 435.479C2619.95 451.702 2620.76 469.491 2611.6 483.842C2606.43 491.931 2601.05 522.21 2586.21 528.563C2581.08 530.752 2573.18 533.543 2568.51 534.882C2561.32 536.935 2519.74 533.123 2504.59 539.079C2497.56 541.847 2492.57 539.919 2485.2 540.27C2469.68 541.031 2452.86 547.645 2437.26 541.53C2410.8 531.149 2413.56 517.263 2376.83 521.03C2349.6 523.821 2323.73 526.895 2297.05 532.057C2290.36 533.35 2284.66 536.288 2283.25 541.655C2282.08 546.056 2281.83 554.474 2288.15 555.733L2288.16 555.745Z" fill="#2F3F2F"/>
</svg>
