<svg width="1573" height="752" viewBox="0 0 1573 752" fill="none" xmlns="http://www.w3.org/2000/svg">
<path d="M743.63 3.12683C741.684 4.72205 737.672 7.17615 734.754 8.52588C728.797 11.2255 726 16.3791 726 24.6003V29.6313L722.11 28.7723C712.14 26.6863 708.371 26.8091 704.481 29.2632C699.496 32.3308 694.146 40.5521 691.472 49.0188C690.134 53.0681 687.338 57.8536 684.663 60.7986C680.651 65.2159 677.368 72.3329 677.368 76.7503C677.368 78.959 673.113 82.1494 670.317 82.1494C668.736 82.1494 664.845 80.6769 661.563 78.959C655.727 75.8914 655.362 75.8914 649.769 77.7319C642.11 80.3088 631.046 81.4131 628.736 79.8179C627.277 78.7136 627.034 75.5233 627.277 61.0439C627.763 38.4661 628.128 38.7115 609.161 38.2207C596.152 37.7299 595.788 37.8526 589.83 41.5338L583.873 45.2149L574.389 42.7608C561.016 39.2023 551.775 39.2023 544.237 42.7608C529.769 49.5096 526.973 51.2275 518.219 58.8353C507.277 68.4063 500.347 77.2411 499.253 83.131C498.28 88.1619 496.943 90.8615 491.471 97.8557C484.298 107.304 483.204 107.918 474.936 107.918C470.924 107.918 467.034 108.408 466.304 108.899C464.602 110.494 455.362 113.562 445.635 115.893C430.924 119.329 425.696 126.201 425.696 142.03C425.696 144.607 424.602 148.533 423.265 150.865C418.401 159.331 415.848 166.08 414.754 173.442C414.146 177.614 413.295 182.523 412.93 184.609C412.566 186.572 412.079 194.302 411.714 201.787C411.107 216.267 411.228 216.021 403.569 217.617C401.866 217.985 397.733 220.316 394.693 222.77C389.587 226.697 387.885 227.188 377.793 228.292C361.38 230.01 358.584 230.623 354.328 233.814C351.289 236.145 350.195 238.231 349.1 243.63C346.669 255.287 338.888 263.263 323.812 269.644C321.137 270.871 319.07 273.202 316.638 278.233C312.869 285.718 310.559 287.559 298.037 291.853C286.608 295.903 273.234 302.652 263.143 309.4C258.401 312.591 253.295 315.29 251.836 315.29C250.377 315.29 246.973 313.45 244.419 311.118C238.827 306.455 231.289 304.001 226.547 305.474C224.723 305.965 220.59 307.56 217.429 309.032C214.146 310.505 210.012 311.609 208.31 311.609C204.906 311.609 191.775 307.192 183.143 303.142C171.836 297.866 163.204 295.412 159.07 296.148C154.328 297.007 152.261 298.97 148.249 306.578C146.547 310.014 143.872 312.836 141.197 314.309C133.538 318.235 127.702 325.352 125.757 333.328C124.784 337.255 123.568 342.163 123.082 344.249C122.474 346.335 119.678 352.47 116.638 357.746C109.1 371.49 106.669 379.956 107.641 389.527L108.371 397.135L99.2521 410.51C94.2673 417.872 87.5804 427.689 84.4193 432.474C81.2582 437.137 78.4618 441.309 78.0971 441.677C77.7324 442.045 76.0302 444.745 74.4497 447.812C72.0181 452.107 71.4102 455.052 71.4102 462.537C71.4102 470.758 71.7749 472.599 75.4223 479.102C77.6108 483.152 79.9208 487.078 80.5287 487.815C81.1366 488.551 82.7172 492.355 84.0545 496.281C85.3919 500.085 88.3099 505.484 90.6199 508.061C93.0515 510.638 96.2126 514.81 97.7932 517.387C101.562 523.522 107.763 539.965 109.586 548.922C110.802 555.18 111.897 556.898 117.124 561.806C120.407 564.874 125.149 570.518 127.459 574.199C131.349 580.089 131.957 582.053 132.079 589.292C132.444 597.514 132.565 597.882 137.672 603.281C144.845 610.643 147.033 611.625 163.568 614.938C172.201 616.656 178.766 618.619 180.103 619.846C182.535 622.055 191.41 625.736 194.693 625.736C195.787 625.736 198.34 627.331 200.529 629.417C202.717 631.38 204.906 633.098 205.392 633.098C206.851 633.098 221.805 648.068 225.574 653.345C227.641 656.044 231.289 660.216 233.842 662.67C237.489 666.229 238.462 668.069 238.462 671.382C238.462 675.186 239.313 676.413 246 681.69C258.401 691.506 261.927 693.838 269.465 698.132C273.477 700.341 280.043 705.249 284.055 709.176C288.067 713.102 292.565 716.906 294.024 717.642C299.252 720.342 320.529 722.673 346.547 723.287C361.015 723.655 375.605 724.514 378.888 725.127C382.292 725.741 395.544 727.459 408.553 728.931C436.395 732.122 449.04 731.631 464.967 726.968C475.301 723.9 476.882 723.778 504.481 724.023C532.809 724.146 536.335 723.9 539.982 720.833C542.657 718.501 551.775 713.225 559.313 709.667C564.785 706.967 566.973 706.599 571.836 707.212C579.861 708.317 585.453 707.09 589.222 703.409C592.505 699.973 592.991 695.924 590.924 689.42C589.101 684.266 586.183 680.708 578.037 674.695L571.836 670.033L572.323 662.302C572.687 658.007 573.174 651.136 573.538 646.841L574.268 639.233H579.009C585.94 639.233 588.006 635.552 586.912 624.509C586.304 617.024 586.426 615.919 588.371 614.815C590.803 613.465 621.441 605.244 629.952 603.526C632.991 603.035 639.678 601.686 645.028 600.704C655.241 598.618 654.876 598.618 666.426 604.876C669.952 606.839 671.532 606.962 675.545 605.98C680.408 604.753 695.119 603.281 719.921 601.317C736.578 599.968 750.195 597.514 753.964 595.182C757.612 592.851 760.043 590.642 760.043 589.538C760.043 589.047 760.773 586.961 761.745 584.875C762.718 582.666 765.514 575.304 768.067 568.31C772.931 554.935 773.417 554.321 784.602 548.063C793.478 543.032 797.855 542.664 802.353 546.591C804.663 548.554 808.554 550.149 812.566 550.885C816.092 551.499 820.712 552.48 822.657 553.217C824.724 553.83 827.764 554.689 829.709 555.057C832.87 555.794 832.992 556.039 832.992 564.138C832.992 572.85 834.207 575.426 838.341 575.426C841.259 575.426 847.581 569.659 847.581 566.96C847.581 563.892 850.499 567.819 852.931 574.199C854.147 577.267 855.606 580.457 856.335 581.316C858.037 583.28 862.292 583.157 865.21 581.071C866.548 580.212 870.074 578.126 873.113 576.408C876.153 574.69 881.624 571.623 885.271 569.537C888.919 567.573 897.186 564.26 903.508 562.42C915.423 558.861 921.867 555.671 926.001 550.885C927.946 548.677 928.311 546.713 928.068 541.069L927.824 533.829L934.268 532.602C937.794 531.743 942.171 529.903 944.238 528.307L947.764 525.485L953.113 528.307C960.043 531.989 961.259 531.989 966.609 527.939C978.524 518.982 985.818 509.411 988.128 499.226C989.101 495.177 990.803 489.532 992.141 486.71C996.639 476.403 999.557 467.323 999.557 463.273C999.557 460.574 1000.77 457.629 1003.33 454.439C1010.13 445.849 1015.36 437.014 1015.36 433.701C1015.36 431.125 1016.7 429.897 1023.63 426.462C1028.13 424.13 1041.5 417.259 1053.54 411.123C1065.45 404.988 1076.52 399.957 1078.1 399.957C1081.75 399.957 1098.4 404.375 1103.51 406.706C1105.58 407.565 1109.71 409.406 1112.75 410.755C1115.79 412.105 1120.77 415.786 1123.93 418.977C1128.92 424.008 1130.13 424.744 1133.66 424.13C1139.74 423.271 1153.72 425.603 1159.92 428.548C1167.1 431.983 1176.34 431.983 1186.79 428.302C1191.17 426.707 1199.68 425.112 1205.64 424.621C1218.77 423.517 1223.51 421.553 1229.95 414.682C1235.67 408.669 1243.57 404.743 1251.47 403.884C1256.21 403.393 1258.16 404.007 1264.12 407.32C1273.11 412.596 1278.71 417.627 1281.14 422.658C1283.2 427.198 1287.34 429.529 1295 430.511C1299.98 431.247 1300.71 431.738 1303.14 436.769C1304.6 439.837 1307.76 446.585 1310.32 451.739C1312.75 457.015 1315.18 461.31 1315.79 461.31C1316.27 461.31 1317 462.414 1317.49 463.642C1319.68 470.881 1340.71 487.078 1347.76 487.078C1351.78 487.078 1376.21 480.943 1385.58 477.63C1392.99 475.053 1396.4 474.562 1413.42 474.44L1432.63 474.194L1436.15 467.445C1437.98 463.764 1439.56 459.592 1439.68 458.12C1439.68 456.77 1440.17 455.175 1440.65 454.439C1442.11 452.843 1444.3 438.364 1445.15 425.603C1445.51 417.872 1445.27 413.578 1443.93 409.774C1441.99 404.252 1441.5 394.067 1443.08 391.981C1443.57 391.245 1449.16 386.828 1455.48 382.042C1461.81 377.257 1468.25 371.98 1469.71 370.385C1483.93 354.188 1483.45 355.047 1486.97 341.672C1488.43 336.273 1490.14 329.647 1490.99 326.947C1492.45 321.548 1495 314.799 1496.94 311.241C1498.28 308.664 1498.65 297.007 1497.43 290.626C1496.46 285.227 1497.67 282.037 1504.72 272.589C1510.44 264.858 1513.72 255.778 1513.84 246.82C1513.84 241.912 1515.79 237.986 1525.15 224.12C1534.15 210.745 1535.48 204.364 1530.38 199.456C1528.43 197.738 1524.91 196.143 1521.99 195.652C1512.63 194.18 1508.37 192.216 1499.01 184.977C1490.74 178.473 1488.92 177.492 1481.99 176.633C1465.09 174.424 1461.69 173.197 1459.13 168.166C1456.21 162.154 1454.76 161.172 1448.19 160.19C1445.15 159.822 1439.44 158.963 1435.42 158.35C1427.89 157.245 1409.04 149.147 1405.39 145.466C1404.18 144.361 1402.11 139.453 1400.77 134.545C1396.88 120.924 1395.91 119.206 1391.17 116.262C1385.7 112.948 1381.93 108.776 1378.77 102.641C1374.63 94.6653 1353.48 79.8179 1346.06 79.6953C1343.27 79.6953 1336.34 84.7262 1336.34 86.8122C1336.34 87.303 1335.48 88.6528 1334.63 89.8798C1333.05 91.8431 1332.44 91.475 1326 84.7262C1322.11 80.6769 1317.86 76.9957 1316.4 76.5049C1315.06 76.0141 1311.78 74.2962 1309.1 72.4556C1303.51 68.7744 1297.67 68.6517 1269.22 71.8421L1251.35 73.8054L1236.27 68.7744C1219.5 63.1299 1218.16 63.0073 1206.97 65.5841C1201.14 66.9338 1197.86 68.6517 1194.45 71.7194C1191.9 74.0508 1188.86 76.3822 1187.76 76.7503C1186.55 77.1184 1181.56 75.4005 1176.58 72.9464L1167.58 68.529L1159.19 71.3513C1148.86 75.0324 1147.64 77.9774 1154.45 83.6218C1156.88 85.5851 1158.83 87.9165 1158.83 88.7755C1158.83 90.3707 1151.17 96.1378 1144.97 99.3282C1143.02 100.31 1138.52 104.604 1134.88 108.654L1128.31 116.139L1122.6 115.034C1114.94 113.439 1104.97 110.372 1103.63 109.022C1102.9 108.408 1100.96 107.918 1099.13 107.918C1088.07 107.918 1078.95 100.555 1072.63 86.6895C1070.56 82.0267 1068.86 77.8547 1068.86 77.2411C1068.86 75.1552 1064.97 72.3329 1062.05 72.3329C1060.35 72.3329 1057.31 73.3145 1055.12 74.4189C1052.93 75.5233 1047.7 77.1184 1043.33 77.8547C1036.03 79.0817 1035.42 79.4498 1035.06 82.5175C1034.82 84.358 1033.84 85.8305 1032.99 85.8305C1031.41 85.8305 1024.97 83.3764 1019.98 80.7996C1017.19 79.3271 996.274 79.3271 995.423 80.7996C995.059 81.4131 990.682 82.272 985.697 82.7629C978.037 83.3764 975.97 83.2537 972.931 81.4131C969.405 79.3271 969.162 79.3271 966.852 81.4131C965.271 82.8856 964.177 86.0759 963.569 90.4933C962.84 96.6287 962.11 98.1011 957.247 102.641C953.478 106.322 950.682 107.918 948.25 107.918C944.116 107.918 940.955 109.635 934.876 114.912C932.445 117.12 928.189 119.943 925.514 121.292C922.961 122.642 919.679 125.096 918.463 126.814C915.302 130.864 909.101 154.791 909.952 159.331C910.56 162.399 910.195 163.135 907.399 164.117C901.685 166.08 894.147 164.976 889.891 161.417C887.703 159.699 884.055 156.754 881.745 154.914C876.274 150.374 867.764 150.251 859.131 154.423C844.906 161.172 837.855 163.258 833.599 161.908C826.791 159.699 826.183 157.859 830.317 151.846C837.368 141.416 837.855 139.576 837.855 125.219C837.855 117.857 837.247 110.249 836.639 108.408C835.909 106.69 834.572 99.6963 833.721 93.0702C831.897 80.5542 830.317 77.2411 825.697 77.2411C822.414 77.2411 817.186 79.9407 814.268 83.131C812.323 85.4624 811.715 85.4624 809.405 83.9899C808.067 83.131 804.42 81.045 801.381 79.3271C796.639 76.6276 795.788 75.6459 795.18 71.3513C794.572 66.0749 792.384 62.5164 789.83 62.5164C787.034 62.5164 782.049 57.6082 778.037 50.7367C775.849 46.9328 772.809 41.7792 771.229 39.3251C769.77 36.8709 768.189 34.0487 767.703 33.0671C764.542 25.4593 763.69 22.6371 763.69 20.0602C763.69 18.5878 763.204 16.9926 762.596 16.6245C762.11 16.2563 761.259 14.1703 760.773 12.0844C760.408 9.87567 758.584 6.3172 756.882 3.98578C753.113 -1.04517 748.858 -1.29053 743.63 3.12683Z" fill="#EDE3D3"/>
<path d="M1123.3 394.345L1123.32 394.795C1123.14 394.779 1122.91 394.987 1122.86 395.123C1122.79 395.132 1122.71 395.136 1122.63 395.137C1122.56 394.776 1122.22 394.784 1121.91 394.813C1121.6 394.841 1121.42 395.051 1121.27 395.393C1120.98 396.039 1119.67 395.277 1119.31 395.982C1120.01 396.528 1122.4 396.752 1122.63 395.808C1122.75 395.776 1122.87 395.73 1122.98 395.672C1123.09 396.064 1123.16 396.472 1123.23 396.952C1123.47 397.097 1123.72 396.946 1123.93 397.122C1123.09 397.831 1120.99 396.442 1120.04 396.766C1119.18 397.055 1118.71 397.982 1118.07 398.544L1116.47 399.958C1116.13 400.259 1115.81 400.619 1115.63 400.946C1115.49 401.046 1115.18 401.041 1115.28 401.408C1115.33 401.593 1115.39 401.692 1115.64 401.642C1115.71 401.738 1115.86 401.769 1115.95 401.818C1115.97 401.94 1115.99 402.093 1116.09 402.127C1116.55 402.288 1116.88 401.908 1117.18 402.012C1117.41 402.095 1117.55 402.651 1117.95 402.677L1118.28 404.005C1118.4 404.456 1119.05 404.151 1119.28 404.298C1119.64 404.516 1120.19 404.686 1120.49 404.291L1121.11 404.337C1121.19 404.343 1121.26 404.515 1121.37 404.469C1121.45 404.437 1121.5 404.387 1121.47 404.303C1121.52 404.303 1121.58 404.341 1121.63 404.334L1121.63 405.334C1121.64 405.487 1121.68 405.576 1121.75 405.647C1121.79 405.702 1121.93 405.65 1121.98 405.69C1122.07 405.771 1122.18 405.834 1122.31 405.85C1122.32 406.227 1122.33 406.618 1122.16 406.963C1122.09 406.967 1122.01 407.053 1121.94 407.066L1121.36 406.971C1120.91 406.896 1120.34 406.741 1119.83 406.868C1119.2 407.025 1118.99 406.535 1118.57 406.399C1117.32 405.991 1116.26 405.553 1115.28 404.64L1113.91 404.339C1113.67 404.287 1113.22 403.631 1112.93 403.947C1112.46 404.473 1112.07 404.746 1111.36 404.914C1110.9 405.024 1110.61 405.66 1110.26 405.947C1109.52 406.556 1108.65 406.647 1107.74 406.806C1107.3 406.884 1106.94 407.357 1106.42 407.093L1107.98 406.294C1108.21 406.174 1107.92 405.684 1107.76 405.396C1108.28 405.116 1108.37 404.609 1108.48 404.001C1108.9 404.263 1108.83 404.818 1109.16 405.105C1109.73 405.6 1110.47 405.296 1110.91 404.767C1111.14 404.484 1111.84 404.287 1111.71 403.789C1111.58 403.29 1110.42 403.647 1110 403.37C1109.91 403.312 1109.95 402.943 1110.13 402.972C1110.93 403.093 1111.83 403.343 1112.6 403.136C1112.98 403.034 1113.59 402.41 1113.55 401.996C1113.47 401.002 1112.85 399.82 1111.9 399.446C1111.31 399.218 1110.49 399.218 1109.91 399.274C1107.89 399.462 1108.03 401.751 1107.82 402.037C1107.17 402.924 1105.86 403.389 1104.88 403.884C1104.55 404.051 1104.29 403.5 1104.19 403.281C1103.88 402.55 1105.15 401.914 1104.86 401.323C1104.25 400.11 1101.26 401.731 1099.65 402.179C1093.73 403.83 1096.66 402.825 1092.04 403.227L1083.42 403.977C1081.79 404.118 1080.24 404.017 1078.64 404.216C1078.5 404.635 1078.59 405.034 1078.51 405.461C1077.82 405.651 1077.2 405.769 1076.62 406.182L1076.38 404.379C1075.39 404.435 1073.68 403.613 1073.25 403.977C1072.66 404.489 1072.36 404.281 1071.73 404.366C1070.19 404.574 1068.79 405.422 1067.37 405.963C1066.36 406.345 1065.41 406.68 1064.61 407.364C1063.94 406.791 1063.12 406.02 1062.41 406.366L1061.03 407.04C1060.17 406.827 1059.29 406.345 1058.37 406.551C1057.92 406.889 1057.3 407.416 1056.95 407.964C1056.62 408.48 1056.32 409.654 1055.54 409.561C1054.62 409.454 1053.98 409.413 1053.16 409.943C1052.21 410.562 1050.47 408.984 1049.19 411.335C1048.93 411.811 1048.74 412.682 1048.02 412.588C1047.3 412.495 1046.78 412.583 1046.07 412.895C1045.6 413.099 1044.77 412.526 1044.23 412.889C1043.29 413.51 1042.26 413.965 1041.09 414.051L1040.66 415.155C1038.11 414.194 1037.46 413.472 1034.84 412.491C1034.22 412.26 1033.79 411.973 1033.07 412.226C1032.32 412.485 1031.23 411.578 1030.7 411.971C1030.55 412.08 1030.51 412.364 1030.35 412.568L1029.57 413.565L1028.34 417.228C1027.18 417.677 1026.89 416.309 1025.8 416.321C1024.09 416.341 1024.88 414.074 1023.82 413.722C1022.93 414.183 1021.09 414.153 1021.03 414.519L1020.9 415.289C1020.87 415.478 1020.35 415.281 1020.13 415.397C1019.91 415.513 1019.97 415.946 1019.84 416.147C1019.4 416.843 1019.77 417.25 1019.87 417.874C1019.92 418.194 1019.55 418.787 1019.92 419.19C1019.08 420.737 1020.82 420.543 1021 422.332C1021.03 422.623 1021.22 423.032 1021.1 423.324C1021.01 423.533 1020.49 423.681 1020.43 423.954C1019.94 426.244 1019.67 428.515 1019.32 430.818C1019.27 431.093 1019.64 431.418 1019.43 431.703C1018.66 431.962 1017.78 431.763 1016.99 432.081C1015.73 432.593 1015.35 435.396 1014.91 436.194C1014.53 436.891 1013.73 437.337 1013.18 437.949C1012.53 438.672 1011.69 439.244 1010.86 439.776C1010.29 440.135 1009.46 440.225 1008.83 440.25C1008.47 440.265 1008.04 439.48 1008.22 439.345L1008.57 439.085C1008.76 438.946 1007.44 437.39 1007.76 437.701C1006.39 436.377 1004.5 437.734 1003.25 438.143C1002.84 438.28 1002.22 438.32 1001.92 438.715C1000.15 437.618 999.81 439.244 998.579 438.32C998.244 438.068 997.872 437.614 998.148 437.086C998.29 436.815 998.974 436.429 998.78 436.055C998.41 435.343 998.282 434.747 998.124 433.95C997.989 433.27 997.257 432.509 996.672 432.178C995.793 431.681 994.675 431.928 993.901 431.378C993.264 430.926 992.909 430.61 992.047 430.622C991.03 430.636 989.723 430.32 988.794 430.931C987.992 431.458 987.376 432.168 986.416 432.379C985.66 432.545 985.517 432.087 985.065 431.729C984.081 430.951 982.913 430.468 982.315 429.143C983.306 428.548 983.988 427.663 984.711 426.878C985.027 426.534 985.555 426.373 985.419 425.664C985.318 425.138 985.535 424.688 985.794 424.231C986.087 423.714 985.521 423.167 985.443 422.686C985.357 422.157 986.002 422.129 986.283 421.92C986.743 421.577 986.832 420.929 987.229 420.533C987.543 420.22 987.769 419.992 987.767 419.593C987.764 419.205 987.642 418.891 987.369 418.551C987.009 418.104 987.47 417.506 987.379 417.007C987.278 416.454 986.363 416.379 986.134 415.865C985.76 415.024 987.592 413.802 986.981 412.913C985.909 411.352 985.513 411.854 984.215 411.026L978.308 407.26C975.924 405.74 976.104 407.656 974.436 406.63C972.162 405.232 971.503 406.992 969.95 406.383C967.762 402.549 969.811 403.179 968.957 400.744C968.778 400.281 969.416 399.646 969.334 399.115C969.148 397.911 969.149 396.688 968.797 395.545C968.36 394.12 968.188 392.708 967.873 391.265C967.714 390.535 967.047 389.98 966.928 389.253L966.629 387.413C966.514 386.704 965.952 386.644 965.368 386.398C964.782 386.151 964.246 385.71 963.53 385.839C962.718 385.984 962.319 385.367 961.807 385.02C960.706 384.276 960.099 383.456 959.756 382.169C959.425 380.92 958.645 379.822 958.209 378.588C957.915 377.755 957.628 376.886 956.997 376.262C956.179 375.456 954.595 374.905 954.884 374.129C955.479 372.529 955.658 371.147 956.738 370.329C957.35 369.867 957.768 369.066 958.434 368.751C959.101 368.436 959.618 368.379 960.136 367.85C960.892 367.077 962.199 366.796 962.894 365.985C963.586 365.176 964.076 364.631 965.145 364.35C965.754 364.191 966.038 363.251 966.434 362.857C966.632 362.66 966.993 362.692 967.09 362.543C967.393 362.071 966.97 360.858 966.724 360.396C966.164 359.349 964.466 357.757 965.939 356.746C966.435 356.405 967.054 356.618 967.493 357.116C968.589 358.359 968.708 357.558 970.261 358.563C970.833 358.933 971.732 359.431 972.435 359.177C973.266 358.876 974.018 358.676 974.851 358.379L975.831 358.029C978.732 356.995 977.083 355.795 978.303 354.891C978.768 354.546 979.402 354.453 979.951 354.694C981.272 355.272 980.943 354.037 983.378 354.087C984.017 354.099 984.371 354.604 984.467 355.165C984.611 356.013 985.054 356.614 985.459 357.33L986.304 358.82C986.92 359.905 986.138 361.988 987.018 363.066C988.681 365.102 988.922 364.44 990.676 364.324L993.644 364.127L996.145 363.198C997.062 362.858 999.509 362.82 1000.55 362.963L1003.54 363.372C1004.54 363.509 1005.3 364.304 1006.17 364.643C1007.04 364.982 1007.93 364.932 1008.65 365.562C1009.28 366.117 1009.9 366.593 1010.41 367.303C1010.91 368.003 1011.44 368.617 1012.26 368.963C1012.45 369.046 1012.53 369.386 1012.73 369.476L1014.45 370.221C1015.58 370.71 1016.53 371.148 1017.36 372.031C1017.78 372.478 1018.17 372.726 1018.43 373.374C1018.53 373.636 1018.79 374.204 1018.99 374.414C1019.62 375.059 1019.99 375.74 1020.46 376.466C1020.94 377.202 1021.97 376.756 1022.56 376.378L1024.92 374.884C1025.78 374.343 1026.7 373.733 1027.73 374.007C1028.84 374.3 1029.91 373.948 1030.5 372.938C1030.63 372.716 1030.98 372.629 1031.13 372.435C1031.97 371.349 1033.18 371.04 1034.5 371.049C1035.25 371.054 1035.98 370.936 1036.69 371.272C1037.28 371.552 1037.75 371.381 1038.35 371.291C1041.36 370.833 1043.85 372.155 1044.68 371.192C1045.11 370.688 1045.19 370.273 1045.13 369.563C1045.09 369.04 1045.83 368.626 1046.09 368.21C1046.34 367.815 1046.13 367.063 1046.51 366.803C1048.71 365.313 1047.9 363.887 1051.88 364.379C1052.39 364.442 1052.93 363.763 1053.56 364.223C1054.02 364.56 1054.4 363.95 1054.72 363.804C1055.87 363.269 1056.81 362.471 1057.27 361.328L1058.65 360.568C1059.17 360.274 1059.66 360.24 1060.06 359.755C1061.3 358.243 1063.36 360.323 1066.26 360.356C1067.15 360.366 1067.82 360.862 1068.52 361.27C1069.83 362.027 1071.32 361.409 1072.71 362.794C1073.08 363.489 1073.58 364.072 1074.38 364.43C1075 364.706 1075.44 365.374 1076.18 365.458C1076.86 365.534 1077.61 365.516 1078.21 365.947C1078.71 366.313 1079.22 366.738 1079.86 366.569C1079.94 366.271 1079.89 366.001 1080.06 365.742C1082.42 365.565 1084.66 364.647 1086.34 362.996C1086.62 362.727 1086.82 362.144 1087.27 362.154C1088.13 362.173 1088.92 362.893 1089.75 362.917L1091.54 362.97C1092.45 362.997 1093.16 362.914 1093.86 362.352C1094.36 361.951 1095.17 361.923 1095.6 361.411C1096.86 359.896 1098.63 357.102 1099.88 356.548L1101.98 355.617C1105.27 354.161 1105.73 355.425 1107.66 355.301C1108.39 355.254 1109.47 354.605 1110.01 354.173C1111.53 352.963 1114.35 353.533 1116.18 353.814C1117.36 353.996 1118.51 354.528 1118.84 355.762C1119.17 356.996 1121.55 358.06 1122.82 358.126L1125.82 358.283C1126.29 358.308 1126.8 358.568 1127.27 358.668C1128.18 358.862 1129.02 358.774 1129.9 358.895C1130.73 359.009 1131.43 360.041 1132.36 360.025C1134.27 359.989 1138.24 362.002 1139.23 363.029L1140.95 364.83C1142.66 366.609 1143.01 367.74 1145.06 369.538C1145.4 369.832 1145.72 370.541 1145.96 370.986C1148.27 375.37 1147 376.43 1148.6 379.226C1149.12 380.152 1149.08 381.257 1148.9 382.276C1148.87 382.428 1149.11 382.62 1149.14 382.723C1149.11 382.628 1148.04 384.9 1147.93 385.491C1147.73 386.686 1147.79 387.995 1147.11 389.052C1146.73 389.647 1146.34 391.876 1145.24 392.344C1144.87 392.505 1144.29 392.711 1143.94 392.809C1143.41 392.96 1140.35 392.68 1139.24 393.118C1138.72 393.322 1138.35 393.18 1137.81 393.206C1136.67 393.262 1135.43 393.749 1134.28 393.299C1132.33 392.534 1132.53 391.512 1129.83 391.789C1127.83 391.995 1125.92 392.221 1123.96 392.601C1123.46 392.696 1123.04 392.913 1122.94 393.308C1122.85 393.632 1122.84 394.252 1123.3 394.344L1123.3 394.345Z" fill="#5C885D"/>
<path d="M142.412 325.357L50.7499 297.832L0.335938 251.958M177.336 596.986L105.747 655.651V692.35L78.2485 724.462V751.986M1517.34 210.672L1572.34 173.972V132.686V95.9863" stroke="#EDE3D3"/>
</svg>
